<svg width="10" height="8" viewBox="0 0 10 8" fill="none" xmlns="http://www.w3.org/2000/svg">
<path d="M8.09524 0H1.42857C1.04969 0 0.686328 0.158035 0.418419 0.43934C0.15051 0.720644 0 1.10218 0 1.5V6.5C0 6.89782 0.15051 7.27936 0.418419 7.56066C0.686328 7.84196 1.04969 8 1.42857 8H8.09524C8.47412 8 8.83748 7.84196 9.10539 7.56066C9.3733 7.27936 9.52381 6.89782 9.52381 6.5V1.5C9.52381 1.10218 9.3733 0.720644 9.10539 0.43934C8.83748 0.158035 8.47412 0 8.09524 0V0ZM8.09524 1L5 3.235C4.92761 3.27888 4.84549 3.30199 4.7619 3.30199C4.67832 3.30199 4.5962 3.27888 4.52381 3.235L1.42857 1H8.09524Z" fill="white"/>
</svg>
