<svg width="8" height="8" viewBox="0 0 8 8" fill="none" xmlns="http://www.w3.org/2000/svg">
<path d="M5.39999 2.40002C5.05934 2.39885 4.72181 2.46486 4.40671 2.59427C4.0916 2.72369 3.80511 2.91396 3.56362 3.15422C3.32213 3.39447 3.13038 3.67998 2.99935 3.99442C2.86832 4.30885 2.80057 4.64604 2.79999 4.98668V7.60002C2.79999 7.7061 2.84213 7.80785 2.91715 7.88286C2.99216 7.95787 3.0939 8.00002 3.19999 8.00002H4.13332C4.23941 8.00002 4.34115 7.95787 4.41616 7.88286C4.49118 7.80785 4.53332 7.7061 4.53332 7.60002V4.98668C4.53323 4.86553 4.55868 4.74571 4.608 4.63505C4.65732 4.52439 4.72941 4.42537 4.81957 4.34444C4.90973 4.2635 5.01593 4.20248 5.13126 4.16534C5.24658 4.12821 5.36843 4.11579 5.48888 4.12891C5.70488 4.15611 5.90339 4.26165 6.04675 4.42549C6.19011 4.58933 6.26836 4.80009 6.26665 5.01779V7.60002C6.26665 7.7061 6.3088 7.80785 6.38381 7.88286C6.45883 7.95787 6.56057 8.00002 6.66665 8.00002H7.59999C7.70607 8.00002 7.80782 7.95787 7.88283 7.88286C7.95785 7.80785 7.99999 7.7061 7.99999 7.60002V4.98668C7.99941 4.64604 7.93166 4.30885 7.80063 3.99442C7.66959 3.67998 7.47785 3.39447 7.23636 3.15422C6.99487 2.91396 6.70837 2.72369 6.39327 2.59427C6.07816 2.46486 5.74063 2.39885 5.39999 2.40002Z" fill="white"/>
<path d="M1.6 2.8H0.4C0.179086 2.8 0 2.97909 0 3.2V7.6C0 7.82091 0.179086 8 0.4 8H1.6C1.82091 8 2 7.82091 2 7.6V3.2C2 2.97909 1.82091 2.8 1.6 2.8Z" fill="white"/>
<path d="M1 2C1.55228 2 2 1.55228 2 1C2 0.447715 1.55228 0 1 0C0.447715 0 0 0.447715 0 1C0 1.55228 0.447715 2 1 2Z" fill="white"/>
</svg>
