<svg width="8" height="9" viewBox="0 0 8 9" fill="none" xmlns="http://www.w3.org/2000/svg">
<path d="M4 3.75C4.34518 3.75 4.625 3.47018 4.625 3.125C4.625 2.77982 4.34518 2.5 4 2.5C3.65482 2.5 3.375 2.77982 3.375 3.125C3.375 3.47018 3.65482 3.75 4 3.75Z" fill="white"/>
<path d="M3.99999 4.17277e-09C3.12168 -4.39124e-05 2.27885 0.346566 1.65467 0.964496C1.0305 1.58243 0.67544 2.42173 0.666656 3.3C0.666656 5.58333 3.60416 8.125 3.72916 8.23333C3.80463 8.29789 3.90068 8.33336 3.99999 8.33336C4.0993 8.33336 4.19535 8.29789 4.27082 8.23333C4.41666 8.125 7.33332 5.58333 7.33332 3.3C7.32454 2.42173 6.96948 1.58243 6.34531 0.964496C5.72113 0.346566 4.8783 -4.39124e-05 3.99999 4.17277e-09V4.17277e-09ZM3.99999 4.58333C3.71156 4.58333 3.4296 4.4978 3.18978 4.33756C2.94996 4.17732 2.76304 3.94956 2.65267 3.68308C2.54229 3.4166 2.51341 3.12338 2.56968 2.84049C2.62595 2.5576 2.76484 2.29775 2.96879 2.0938C3.17274 1.88985 3.43259 1.75096 3.71548 1.69469C3.99837 1.63842 4.29159 1.6673 4.55807 1.77768C4.82455 1.88805 5.05231 2.07497 5.21255 2.31479C5.37279 2.55462 5.45832 2.83657 5.45832 3.125C5.45832 3.51177 5.30468 3.88271 5.03119 4.1562C4.7577 4.42969 4.38676 4.58333 3.99999 4.58333V4.58333Z" fill="white"/>
</svg>
