<svg width="10" height="9" viewBox="0 0 10 9" fill="none" xmlns="http://www.w3.org/2000/svg">
<path d="M5.41667 2.49999C5.74819 2.49999 6.06613 2.63169 6.30055 2.86611C6.53497 3.10053 6.66667 3.41847 6.66667 3.74999C6.66667 3.8605 6.71056 3.96648 6.78871 4.04462C6.86685 4.12276 6.97283 4.16666 7.08333 4.16666C7.19384 4.16666 7.29982 4.12276 7.37796 4.04462C7.4561 3.96648 7.5 3.8605 7.5 3.74999C7.5 3.19746 7.28051 2.66755 6.88981 2.27685C6.4991 1.88615 5.9692 1.66666 5.41667 1.66666C5.30616 1.66666 5.20018 1.71056 5.12204 1.7887C5.0439 1.86684 5 1.97282 5 2.08332C5 2.19383 5.0439 2.29981 5.12204 2.37795C5.20018 2.45609 5.30616 2.49999 5.41667 2.49999V2.49999Z" fill="white"/>
<path d="M5.41667 0.833329C6.19021 0.833329 6.93208 1.14062 7.47906 1.6876C8.02604 2.23458 8.33333 2.97645 8.33333 3.75C8.33333 3.8605 8.37723 3.96648 8.45537 4.04462C8.53351 4.12276 8.63949 4.16666 8.75 4.16666C8.86051 4.16666 8.96649 4.12276 9.04463 4.04462C9.12277 3.96648 9.16667 3.8605 9.16667 3.75C9.16667 2.75543 8.77158 1.80161 8.06832 1.09835C7.36506 0.395084 6.41123 -3.8147e-06 5.41667 -3.8147e-06C5.30616 -3.8147e-06 5.20018 0.0438948 5.12204 0.122035C5.0439 0.200175 5 0.306156 5 0.416663C5 0.52717 5.0439 0.633151 5.12204 0.711291C5.20018 0.789431 5.30616 0.833329 5.41667 0.833329V0.833329Z" fill="white"/>
<path d="M9.06251 5.79583C9.03959 5.72894 9.00003 5.66899 8.94755 5.62161C8.89506 5.57423 8.83139 5.54098 8.76251 5.525L6.26251 4.95417C6.19465 4.93878 6.12402 4.94063 6.05706 4.95956C5.9901 4.97848 5.92894 5.01387 5.87918 5.0625C5.82084 5.11667 5.81668 5.12083 5.54584 5.6375C4.64718 5.2234 3.92709 4.50036 3.51668 3.6C4.04584 3.33333 4.05001 3.33333 4.10418 3.27083C4.15281 3.22107 4.1882 3.15991 4.20712 3.09295C4.22604 3.02599 4.2279 2.95536 4.21251 2.8875L3.64168 0.416667C3.6257 0.34779 3.59245 0.284113 3.54507 0.23163C3.49769 0.179147 3.43773 0.139584 3.37084 0.116667C3.27354 0.0819123 3.17306 0.0567918 3.07084 0.0416666C2.96553 0.017248 2.85807 0.00329139 2.75001 0C2.24168 0 1.75417 0.201934 1.39472 0.561379C1.03528 0.920823 0.833344 1.40833 0.833344 1.91667C0.835548 3.6178 1.5123 5.24862 2.71518 6.4515C3.91806 7.65438 5.54888 8.33113 7.25001 8.33333C7.50171 8.33333 7.75095 8.28376 7.98349 8.18744C8.21603 8.09111 8.42732 7.94993 8.6053 7.77195C8.78328 7.59398 8.92446 7.38268 9.02078 7.15014C9.1171 6.9176 9.16668 6.66837 9.16668 6.41667C9.16681 6.31061 9.15845 6.20472 9.14168 6.1C9.12417 5.99651 9.09768 5.89473 9.06251 5.79583V5.79583Z" fill="white"/>
</svg>
